# xmcd
#
# Track frame offsets:
#	150
#	16425
#	34590
#	52625
#	88181
#	106604
#	124818
#	152524
#	173195
#	186502
#
# Disc length: 2711 seconds
#
# Revision: 2
# Processed by: cddbd v1.5.2PL0 Copyright (c) Steve Scherf et al.
# Submitted via: EasyCDDAExtractor 9.1.1.2
#
DISCID=720a950a
DTITLE=Юры Несьцярэнка - Сьвята вялікіх дажджоў
DYEAR=2007
DGENRE=Blues
TTITLE0=Шукаеш кветачку
TTITLE1=Дзьве сьлязы
TTITLE2=Кветка
TTITLE3=Сьвята вялікіх дажджоў
TTITLE4=Я хацеў бы
TTITLE5=Агні гараць
TTITLE6=Знаю столькі пяшчотаў
TTITLE7=Па сьлядах ваўка
TTITLE8=Свой сьлед
TTITLE9=Блюз белай ночы
EXTD=
EXTT0=
EXTT1=
EXTT2=
EXTT3=
EXTT4=
EXTT5=
EXTT6=
EXTT7=
EXTT8=
EXTT9=
PLAYORDER=
